<svg version="1.1" id="Layer_1" xmlns="http://www.w3.org/2000/svg" xmlns:xlink="http://www.w3.org/1999/xlink" x="0px" y="0px"
	 width="100%" viewBox="0 0 460 209" enable-background="new 0 0 460 209" xml:space="preserve">
<path fill="#010101" opacity="1.000000" stroke="none" 
	d="
M284.000000,210.000000 
	C189.333374,210.000000 95.166733,210.000000 1.000076,210.000000 
	C1.000051,140.333389 1.000051,70.666786 1.000025,1.000132 
	C154.333221,1.000088 307.666443,1.000088 460.999756,1.000044 
	C460.999817,70.666527 460.999817,140.333054 460.999908,209.999786 
	C402.166656,210.000000 343.333344,210.000000 284.000000,210.000000 
M207.645340,119.500343 
	C208.637207,117.081703 209.629074,114.663063 210.620956,112.244423 
	C210.127762,111.977913 209.634583,111.711403 209.141403,111.444893 
	C208.393158,112.556152 207.644913,113.667419 206.358871,115.226181 
	C205.617477,116.896568 204.876068,118.566963 203.715912,120.741196 
	C202.830551,122.496246 201.945190,124.251297 200.644547,126.294907 
	C200.236237,127.080376 199.827942,127.865852 198.881531,129.278900 
	C195.033646,134.458817 192.168976,140.625198 185.244370,142.353302 
	C185.244370,142.353302 185.006729,141.973267 185.014374,141.144943 
	C184.850601,136.896606 183.791138,132.448059 184.687744,128.436737 
	C187.604431,115.387741 191.335678,102.523094 194.538452,89.534492 
	C195.634018,85.091583 197.627640,83.647758 202.448395,84.108398 
	C209.405746,84.773193 216.696777,85.568962 223.719421,80.764793 
	C223.509644,79.985611 223.299866,79.206436 222.306549,78.338280 
	C214.754089,83.129341 206.482239,80.385834 197.787125,81.067917 
	C199.282883,77.411682 200.554993,74.397758 201.748795,71.353142 
	C202.667740,69.009529 204.814560,66.471245 200.841064,64.744095 
	C197.324966,63.215755 195.491867,65.192093 194.145233,67.964890 
	C192.262253,71.842041 190.513748,75.784500 188.613693,79.902847 
	C184.539505,79.902847 180.393295,79.760780 176.260361,79.934486 
	C169.184448,80.231895 167.589798,81.155090 166.893463,84.392235 
	C173.417801,83.809433 180.115799,83.211113 187.434586,82.557335 
	C185.052170,90.432747 182.299454,96.958176 181.199783,103.751205 
	C179.406052,114.831718 173.704254,123.765869 167.363693,132.455124 
	C165.791489,134.609695 163.156906,135.989075 159.891388,138.629959 
	C159.891388,134.873260 159.535400,132.853287 159.962601,131.015366 
	C160.973984,126.664154 162.221222,122.354515 163.621078,118.109848 
	C165.924530,111.125206 165.206100,110.020561 157.684708,109.641937 
	C156.182053,109.566292 154.686447,109.350418 153.403427,109.220978 
	C155.284103,104.066032 157.301407,99.607780 158.429626,94.934875 
	C158.903534,92.971901 158.109695,89.968399 156.741776,88.538422 
	C155.732422,87.483276 152.563766,87.527481 150.864090,88.259254 
	C141.421829,92.324486 139.915176,106.952988 148.360565,112.657768 
	C150.430832,114.056206 153.288528,114.288933 154.903015,114.786194 
	C153.865555,121.231133 152.243851,127.348740 152.197174,133.478333 
	C152.177597,136.049683 154.990326,139.745590 157.456604,140.875092 
	C159.343826,141.739365 163.145859,139.947754 165.309998,138.303009 
	C168.129288,136.160355 170.252060,133.059814 172.516663,130.244461 
	C173.842651,128.595978 174.861343,126.700317 176.018280,124.915848 
	C177.037582,126.330330 176.965225,127.283051 177.050079,128.221558 
	C177.422409,132.339798 177.279709,136.609253 178.367508,140.534637 
	C180.189163,147.108139 186.291656,148.536850 190.918137,143.611633 
	C194.474991,139.825134 197.529007,135.566315 201.147522,131.185928 
	C201.538300,130.375626 201.929077,129.565308 202.947372,128.161163 
	C204.243210,125.633720 205.539047,123.106270 206.802582,120.490181 
	C206.802582,120.490181 206.974762,120.193893 207.645340,119.500343 
M393.915344,129.496353 
	C393.662903,130.331268 393.410461,131.166183 392.915283,132.804413 
	C393.383606,138.009018 396.300812,139.667542 401.306854,137.424179 
	C407.253754,134.759186 410.279999,129.506577 413.141479,124.033562 
	C414.047913,122.299881 415.782166,120.999039 417.650787,119.423492 
	C417.766876,119.295204 417.882965,119.166908 418.722382,119.005920 
	C422.234955,117.139595 426.702087,116.429161 428.728699,110.571808 
	C424.332916,112.949486 421.106598,114.694618 417.230835,116.582428 
	C416.824951,116.760063 416.419098,116.937706 415.500824,116.614410 
	C415.495697,116.283531 415.457520,115.949333 415.490295,115.622253 
	C416.256683,107.972343 414.311920,103.012482 409.938934,101.485916 
	C405.963013,100.097977 401.434235,102.701607 397.199036,109.010574 
	C395.001892,112.283569 393.015167,115.697823 390.933380,119.048256 
	C390.886078,114.911469 391.713623,111.089394 392.030151,107.225456 
	C392.279053,104.186470 396.029175,99.665367 390.895325,98.402931 
	C385.961853,97.189774 385.885315,102.626961 384.867493,105.876221 
	C382.017975,114.973061 380.999939,115.706261 371.109558,114.602821 
	C370.175110,111.789734 369.630981,108.776024 368.222900,106.242523 
	C366.226929,102.651375 363.338745,102.800117 359.608826,106.108421 
	C359.316986,106.110817 359.025177,106.113213 357.910065,106.022324 
	C352.474945,104.798531 349.855499,108.243507 347.188385,112.118820 
	C343.716553,117.163513 340.152649,122.208694 336.057617,126.737610 
	C333.446747,129.625122 331.396301,128.657150 330.852203,124.795258 
	C330.342377,121.176430 330.475342,117.429848 329.637604,113.902878 
	C328.274139,108.162819 323.557983,106.799416 319.077454,110.681847 
	C317.475494,112.069969 316.125732,113.840851 314.975861,115.638512 
	C313.024902,118.688553 311.323853,121.898483 309.517731,125.041214 
	C308.949280,124.829742 308.380798,124.618279 307.812347,124.406815 
	C308.933624,120.480171 308.873444,115.399223 311.383850,112.829742 
	C321.441406,102.535500 329.372406,90.990631 334.635986,77.694855 
	C338.004639,69.185623 340.858490,60.381008 339.078583,50.988094 
	C337.938354,44.970959 333.697144,42.391743 328.492432,45.385853 
	C323.874512,48.042374 319.378632,51.705502 316.220673,55.957893 
	C306.341766,69.260376 301.502899,84.956924 300.710602,101.087318 
	C300.174072,112.010483 294.509674,115.245293 286.127930,117.638420 
	C285.975861,117.681824 285.804535,117.657837 285.473236,117.673042 
	C281.186462,110.535255 274.472046,106.491875 266.766479,103.748489 
	C260.824463,101.632965 254.826874,99.631454 249.022522,97.180191 
	C237.942230,92.500778 235.817734,86.393097 241.711060,75.903984 
	C248.926178,63.062317 259.311462,53.412762 272.626038,47.139969 
	C276.015778,45.542999 279.886810,44.574284 283.624878,44.201843 
	C289.295654,43.636841 293.316345,47.031734 293.980682,52.056248 
	C295.106476,60.570969 286.882507,73.901199 278.737488,76.997040 
	C277.737244,77.377228 277.043091,78.562820 276.207123,79.375191 
	C277.312408,79.909782 278.418579,80.867653 279.522797,80.865433 
	C280.739532,80.862976 282.099701,80.184425 283.146912,79.445457 
	C290.315247,74.387131 295.467957,67.645821 297.814362,59.248814 
	C301.089233,47.529018 294.349030,39.063076 282.182800,38.968529 
	C280.363831,38.954388 278.498657,39.046829 276.728943,39.431114 
	C257.399109,43.628441 242.998016,54.821957 232.966202,71.501114 
	C223.852097,86.654449 228.519073,98.871429 245.101883,105.039276 
	C252.260635,107.701920 259.601868,109.949539 266.547668,113.079285 
	C270.398346,114.814384 273.604401,117.980186 277.336273,120.670723 
	C269.363586,124.891426 262.274689,127.959312 255.973236,132.197876 
	C250.970779,135.562668 246.073120,139.760818 242.656693,144.655350 
	C236.779221,153.075684 241.537918,161.036880 251.804337,161.212845 
	C270.187958,161.527908 288.143585,142.937042 287.251068,124.664139 
	C287.176544,123.138718 287.685883,120.763344 288.724487,120.159279 
	C291.816681,118.360832 295.308228,117.248993 298.742676,115.827911 
	C299.382843,122.359612 299.686920,128.648224 300.787659,134.794159 
	C301.127472,136.691620 303.638031,138.200287 305.154663,139.886993 
	C306.702972,138.422150 308.774536,137.225174 309.690186,135.436462 
	C311.570923,131.762421 312.597717,127.656151 314.419830,123.945740 
	C316.028564,120.669739 318.240173,117.689796 320.185608,114.579132 
	C321.791199,118.309418 322.026337,121.572601 322.770020,124.715446 
	C324.951996,133.936356 331.457886,135.833694 338.402222,129.329712 
	C340.115540,127.725029 341.576019,125.850388 343.895630,123.275040 
	C343.895630,125.610580 343.855560,126.443695 343.902069,127.271942 
	C344.210602,132.763657 347.217102,137.459137 351.258209,138.795151 
	C355.763031,140.284454 360.380035,138.894928 363.711945,133.731689 
	C366.710968,129.084290 368.647369,123.751198 371.182587,118.448448 
	C374.169952,118.105278 377.951599,117.670868 382.017456,117.203812 
	C381.529114,124.591347 381.622040,131.545181 377.443146,137.698471 
	C376.616455,138.915741 376.991913,140.949463 377.116486,142.826477 
	C377.419891,142.735321 377.723297,142.644165 377.799774,142.715866 
	C377.650635,142.998230 377.685059,143.231445 377.668274,142.335999 
	C376.602631,142.629898 374.890472,142.606567 374.567474,143.264877 
	C368.915863,154.782532 363.370117,166.416992 364.074554,179.695877 
	C364.193115,181.930511 365.834076,185.316040 367.547241,185.901993 
	C369.411102,186.539444 373.050873,185.216644 374.371338,183.535202 
	C377.088287,180.075531 379.566162,176.026108 380.726807,171.828018 
	C383.329132,162.415390 385.261139,152.801025 387.106689,143.199722 
	C389.484772,130.827942 392.901886,118.903793 400.929352,108.896179 
	C402.296844,107.191345 404.863434,106.448296 406.876038,105.260902 
	C407.380676,107.528320 408.142181,109.773743 408.338531,112.067543 
	C408.801971,117.481201 405.477814,120.846725 401.441345,123.830154 
	C401.441345,123.830154 401.432098,123.926888 400.919006,123.197372 
	C398.741608,125.131882 396.564178,127.066399 393.915344,129.496353 
M56.441669,147.987778 
	C67.118095,145.249832 75.084885,138.379242 81.710365,130.166595 
	C88.687935,121.517555 94.729042,112.116837 101.314537,103.143791 
	C102.367500,101.709084 104.067474,99.900932 105.573448,99.797630 
	C111.306320,99.404358 117.082260,99.639008 123.430878,99.639008 
	C122.590370,103.290154 121.945396,105.837547 121.422211,108.409721 
	C119.425278,118.227280 117.834549,128.086411 120.048447,138.082047 
	C121.433823,144.337006 123.893234,149.905884 131.005035,151.453598 
	C134.309402,152.172714 137.323257,151.720261 139.328903,147.978424 
	C131.765991,147.766205 130.348511,146.746017 129.290771,141.070480 
	C129.078079,139.929230 128.993027,138.759094 128.919617,137.597794 
	C128.130615,125.116455 130.888290,113.172279 134.170044,101.692604 
	C136.388748,101.356888 138.299606,101.067757 140.210480,100.778618 
	C140.163879,100.304092 140.117279,99.829567 140.070679,99.355042 
	C138.565033,98.797295 137.059387,98.239548 135.267700,97.575851 
	C137.614792,90.853973 140.008240,84.158844 142.290924,77.426170 
	C146.121246,66.128853 150.031830,54.854626 153.581787,43.468777 
	C154.696472,39.893600 154.563217,35.310234 150.602188,33.920155 
	C148.118622,33.048584 143.761765,34.193962 141.714951,36.052666 
	C136.592468,40.704388 131.615479,45.822849 127.829231,51.576107 
	C119.799927,63.776718 112.113182,76.257515 105.204445,89.116875 
	C101.933632,95.204903 97.875061,97.068657 91.501823,97.008690 
	C79.244629,96.893356 67.318100,99.114594 56.049259,104.053009 
	C47.503334,107.798157 40.045704,113.055916 35.871834,121.772942 
	C32.592049,128.622681 31.949213,135.718460 36.782600,142.104965 
	C41.505875,148.345993 48.210716,149.658035 56.441669,147.987778 
M81.321320,67.000175 
	C79.701385,67.000175 78.081459,67.000175 76.346069,67.000175 
	C76.069572,65.130814 75.830002,63.511127 75.590439,61.891445 
	C75.247948,61.920105 74.905464,61.948765 74.562973,61.977425 
	C74.562973,66.283661 74.562973,70.589897 74.562973,74.896133 
	C74.916275,74.923584 75.269577,74.951035 75.622879,74.978485 
	C75.853241,73.149048 76.083595,71.319611 76.328148,69.377480 
	C78.557739,69.377480 80.621704,69.377480 82.650505,69.377480 
	C82.980133,71.399994 83.270180,73.179665 83.560219,74.959335 
	C83.896919,74.915146 84.233612,74.870956 84.570305,74.826767 
	C84.570305,70.555016 84.570305,66.283272 84.570305,62.011520 
	C84.285057,61.965389 83.999802,61.919258 83.714554,61.873127 
	C83.221016,63.565639 82.727478,65.258156 81.321320,67.000175 
M91.418335,61.826874 
	C90.607025,62.526260 89.146446,63.181057 89.094826,63.932617 
	C88.848404,67.520691 88.984398,71.135033 88.984398,74.744858 
	C91.740532,74.744858 93.989037,74.744858 96.237534,74.744858 
	C93.240051,74.175667 89.990051,74.155212 91.336708,69.462639 
	C92.745117,69.213280 94.131203,68.967865 94.963562,68.820496 
	C93.673088,67.749557 92.346489,66.648636 91.019890,65.547714 
	C92.767807,64.310074 94.515717,63.072433 96.276497,61.825684 
	C95.185883,61.825684 93.760345,61.825684 91.418335,61.826874 
M63.865200,63.591255 
	C64.266434,65.868080 64.699661,68.139885 65.057686,70.423485 
	C65.297646,71.954056 65.430923,73.501366 65.611938,75.041183 
	C66.066254,74.988716 66.520576,74.936249 66.974899,74.883774 
	C66.974899,71.297920 66.974899,67.712059 66.974899,64.270355 
	C68.491928,63.684525 69.608910,63.253185 70.725891,62.821842 
	C70.689575,62.529263 70.653267,62.236679 70.616951,61.944096 
	C67.933662,61.944096 65.250374,61.944096 62.567089,61.944096 
	C62.697914,62.457726 62.828739,62.971355 63.865200,63.591255 
z"/>
<path fill="#F2F2F2" opacity="1.000000" stroke="none" 
	d="
M376.812988,142.606659 
	C376.991913,140.949463 376.616455,138.915741 377.443146,137.698471 
	C381.622040,131.545181 381.529114,124.591347 382.017456,117.203812 
	C377.951599,117.670868 374.169952,118.105278 371.182587,118.448448 
	C368.647369,123.751198 366.710968,129.084290 363.711945,133.731689 
	C360.380035,138.894928 355.763031,140.284454 351.258209,138.795151 
	C347.217102,137.459137 344.210602,132.763657 343.902069,127.271942 
	C343.855560,126.443695 343.895630,125.610580 343.895630,123.275040 
	C341.576019,125.850388 340.115540,127.725029 338.402222,129.329712 
	C331.457886,135.833694 324.951996,133.936356 322.770020,124.715446 
	C322.026337,121.572601 321.791199,118.309418 320.185608,114.579132 
	C318.240173,117.689796 316.028564,120.669739 314.419830,123.945740 
	C312.597717,127.656151 311.570923,131.762421 309.690186,135.436462 
	C308.774536,137.225174 306.702972,138.422150 305.154663,139.886993 
	C303.638031,138.200287 301.127472,136.691620 300.787659,134.794159 
	C299.686920,128.648224 299.382843,122.359612 298.742676,115.827911 
	C295.308228,117.248993 291.816681,118.360832 288.724487,120.159279 
	C287.685883,120.763344 287.176544,123.138718 287.251068,124.664139 
	C288.143585,142.937042 270.187958,161.527908 251.804337,161.212845 
	C241.537918,161.036880 236.779221,153.075684 242.656693,144.655350 
	C246.073120,139.760818 250.970779,135.562668 255.973236,132.197876 
	C262.274689,127.959312 269.363586,124.891426 277.336273,120.670723 
	C273.604401,117.980186 270.398346,114.814384 266.547668,113.079285 
	C259.601868,109.949539 252.260635,107.701920 245.101883,105.039276 
	C228.519073,98.871429 223.852097,86.654449 232.966202,71.501114 
	C242.998016,54.821957 257.399109,43.628441 276.728943,39.431114 
	C278.498657,39.046829 280.363831,38.954388 282.182800,38.968529 
	C294.349030,39.063076 301.089233,47.529018 297.814362,59.248814 
	C295.467957,67.645821 290.315247,74.387131 283.146912,79.445457 
	C282.099701,80.184425 280.739532,80.862976 279.522797,80.865433 
	C278.418579,80.867653 277.312408,79.909782 276.207123,79.375183 
	C277.043091,78.562820 277.737244,77.377228 278.737488,76.997040 
	C286.882507,73.901199 295.106476,60.570969 293.980682,52.056248 
	C293.316345,47.031734 289.295654,43.636841 283.624878,44.201843 
	C279.886810,44.574284 276.015778,45.542999 272.626038,47.139969 
	C259.311462,53.412762 248.926178,63.062317 241.711060,75.903984 
	C235.817734,86.393097 237.942230,92.500778 249.022522,97.180191 
	C254.826874,99.631454 260.824463,101.632965 266.766479,103.748489 
	C274.472046,106.491875 281.186462,110.535255 285.473236,117.673042 
	C285.804535,117.657837 285.975861,117.681824 286.127930,117.638420 
	C294.509674,115.245293 300.174072,112.010483 300.710602,101.087318 
	C301.502899,84.956924 306.341766,69.260376 316.220673,55.957893 
	C319.378632,51.705502 323.874512,48.042374 328.492432,45.385853 
	C333.697144,42.391743 337.938354,44.970959 339.078583,50.988094 
	C340.858490,60.381008 338.004639,69.185623 334.635986,77.694855 
	C329.372406,90.990631 321.441406,102.535500 311.383850,112.829742 
	C308.873444,115.399223 308.933624,120.480171 307.812347,124.406815 
	C308.380798,124.618279 308.949280,124.829742 309.517731,125.041214 
	C311.323853,121.898483 313.024902,118.688553 314.975861,115.638512 
	C316.125732,113.840851 317.475494,112.069969 319.077454,110.681847 
	C323.557983,106.799416 328.274139,108.162819 329.637604,113.902878 
	C330.475342,117.429848 330.342377,121.176430 330.852203,124.795258 
	C331.396301,128.657150 333.446747,129.625122 336.057617,126.737610 
	C340.152649,122.208694 343.716553,117.163513 347.188385,112.118820 
	C349.855499,108.243507 352.474945,104.798531 358.485474,106.409790 
	C359.534302,106.592690 360.007721,106.388123 360.481171,106.183563 
	C363.338745,102.800117 366.226929,102.651375 368.222900,106.242523 
	C369.630981,108.776024 370.175110,111.789734 371.109558,114.602821 
	C380.999939,115.706261 382.017975,114.973061 384.867493,105.876221 
	C385.885315,102.626961 385.961853,97.189774 390.895325,98.402931 
	C396.029175,99.665367 392.279053,104.186470 392.030151,107.225456 
	C391.713623,111.089394 390.886078,114.911469 390.933380,119.048256 
	C393.015167,115.697823 395.001892,112.283569 397.199036,109.010574 
	C401.434235,102.701607 405.963013,100.097977 409.938934,101.485916 
	C414.311920,103.012482 416.256683,107.972343 415.490295,115.622253 
	C415.457520,115.949333 415.495697,116.283531 415.900574,117.162613 
	C416.579437,118.307243 416.858521,118.903679 417.137604,119.500114 
	C415.782166,120.999039 414.047913,122.299881 413.141479,124.033562 
	C410.279999,129.506577 407.253754,134.759186 401.306854,137.424179 
	C396.300812,139.667542 393.383606,138.009018 393.368469,132.402527 
	C394.485229,132.000473 395.148834,132.000336 395.859497,132.390930 
	C397.144958,132.855408 398.974213,133.481842 399.515320,132.903366 
	C401.448486,130.836655 402.944519,128.361023 404.303131,126.463104 
	C402.907776,125.113457 402.206879,124.435532 401.505981,123.757607 
	C405.477814,120.846725 408.801971,117.481201 408.338531,112.067543 
	C408.142181,109.773743 407.380676,107.528320 406.876038,105.260910 
	C404.863434,106.448296 402.296844,107.191345 400.929352,108.896179 
	C392.901886,118.903793 389.484772,130.827942 387.106689,143.199722 
	C385.261139,152.801025 383.329132,162.415390 380.726807,171.828018 
	C379.566162,176.026108 377.088287,180.075531 374.371338,183.535202 
	C373.050873,185.216644 369.411102,186.539444 367.547241,185.901993 
	C365.834076,185.316040 364.193115,181.930511 364.074554,179.695877 
	C363.370117,166.416992 368.915863,154.782532 374.567474,143.264877 
	C374.890472,142.606567 376.602631,142.629898 377.478760,143.189331 
	C371.928009,156.229721 365.553284,168.183823 368.402252,182.424438 
	C370.380890,180.936584 372.296722,179.280670 372.726929,177.301758 
	C375.285797,165.532104 377.505920,153.688675 379.773987,141.857407 
	C379.801361,141.714478 378.960999,141.405197 377.938416,141.341705 
	C377.171753,141.875443 376.992371,142.241058 376.812988,142.606659 
M309.546814,107.904755 
	C310.674072,107.434212 312.140076,107.268097 312.877716,106.447372 
	C323.606628,94.510101 331.110504,80.797707 334.772339,65.137268 
	C335.631378,61.463467 335.828461,57.574387 335.815887,53.786057 
	C335.810608,52.194633 334.666351,49.448887 333.690460,49.282970 
	C332.122009,49.016296 329.856140,50.044746 328.620697,51.268631 
	C326.653595,53.217300 325.063232,55.650459 323.710541,58.098133 
	C315.290466,73.334557 311.893066,90.033028 309.546814,107.904755 
M253.160065,156.988251 
	C267.741974,153.125671 279.987152,136.967896 277.115631,124.196556 
	C270.268188,127.955994 263.361664,131.191666 257.095093,135.383911 
	C252.919571,138.177277 248.991074,141.874008 246.142044,145.990143 
	C241.939926,152.061111 244.913681,156.820251 253.160065,156.988251 
M352.973083,124.524818 
	C352.955139,126.976494 352.546631,129.521408 353.099304,131.836868 
	C353.341919,132.853241 356.648865,134.133545 356.698730,134.058273 
	C359.726837,129.486450 362.576416,124.795448 365.407501,120.094376 
	C367.527222,116.574471 364.199677,115.211311 362.658234,113.085045 
	C361.725555,111.798454 361.132324,110.265785 359.960907,108.031952 
	C357.548981,113.537987 355.316284,118.634796 352.973083,124.524818 
M363.902832,109.671524 
	C364.787415,109.855827 365.672028,110.040131 366.556610,110.224434 
	C366.113434,109.262344 365.670227,108.300247 365.227051,107.338150 
	C364.680939,107.916039 364.134827,108.493927 363.902832,109.671524 
M389.420135,122.191460 
	C389.795532,122.195953 390.170959,122.200447 390.546356,122.204941 
	C390.548065,122.049202 390.560425,121.758118 390.550018,121.757294 
	C390.176544,121.727997 389.800903,121.725815 389.420135,122.191460 
z"/>
<path fill="#EFEFEF" opacity="1.000000" stroke="none" 
	d="
M56.033699,148.065262 
	C48.210716,149.658035 41.505875,148.345993 36.782600,142.104965 
	C31.949213,135.718460 32.592049,128.622681 35.871834,121.772942 
	C40.045704,113.055916 47.503334,107.798157 56.049259,104.053009 
	C67.318100,99.114594 79.244629,96.893356 91.501823,97.008690 
	C97.875061,97.068657 101.933632,95.204903 105.204445,89.116875 
	C112.113182,76.257515 119.799927,63.776718 127.829231,51.576107 
	C131.615479,45.822849 136.592468,40.704388 141.714951,36.052666 
	C143.761765,34.193962 148.118622,33.048584 150.602188,33.920155 
	C154.563217,35.310234 154.696472,39.893600 153.581787,43.468777 
	C150.031830,54.854626 146.121246,66.128853 142.290924,77.426170 
	C140.008240,84.158844 137.614792,90.853973 135.267700,97.575851 
	C137.059387,98.239548 138.565033,98.797295 140.070679,99.355042 
	C140.117279,99.829567 140.163879,100.304092 140.210480,100.778618 
	C138.299606,101.067757 136.388748,101.356888 134.170044,101.692604 
	C130.888290,113.172279 128.130615,125.116455 128.919617,137.597794 
	C128.993027,138.759094 129.078079,139.929230 129.290771,141.070480 
	C130.348511,146.746017 131.765991,147.766205 139.328903,147.978424 
	C137.323257,151.720261 134.309402,152.172714 131.005035,151.453598 
	C123.893234,149.905884 121.433823,144.337006 120.048447,138.082047 
	C117.834549,128.086411 119.425278,118.227280 121.422211,108.409721 
	C121.945396,105.837547 122.590370,103.290154 123.430878,99.639008 
	C117.082260,99.639008 111.306320,99.404358 105.573448,99.797630 
	C104.067474,99.900932 102.367500,101.709084 101.314537,103.143791 
	C94.729042,112.116837 88.687935,121.517555 81.710365,130.166595 
	C75.084885,138.379242 67.118095,145.249832 56.033699,148.065262 
M58.399635,143.172470 
	C77.512619,134.392197 86.958862,116.745636 98.879379,99.766930 
	C82.736862,100.281334 67.973183,101.454521 54.551758,109.023033 
	C47.697926,112.887985 42.338665,118.140236 40.005905,125.983315 
	C38.271015,131.816269 38.677147,137.290878 43.164680,141.674545 
	C47.388802,145.800888 52.535042,145.185181 58.399635,143.172470 
M121.776573,68.315041 
	C116.500992,77.427185 111.225410,86.539322 105.699600,96.083656 
	C111.317032,96.414574 116.137268,96.609283 120.939362,97.017418 
	C123.510529,97.235939 124.536377,96.388878 125.461990,93.812111 
	C129.668228,82.102562 134.263306,70.532639 138.721497,58.913631 
	C141.300186,52.193035 143.884567,45.474628 146.466385,38.755234 
	C134.850067,45.825928 128.931244,57.108574 121.776573,68.315041 
z"/>
<path fill="#F4F4F4" opacity="1.000000" stroke="none" 
	d="
M185.320831,142.794952 
	C192.168976,140.625198 195.033646,134.458817 199.423508,129.717560 
	C200.245865,130.609985 200.526245,131.063766 200.806641,131.517548 
	C197.529007,135.566315 194.474991,139.825134 190.918137,143.611633 
	C186.291656,148.536850 180.189163,147.108139 178.367508,140.534637 
	C177.279709,136.609253 177.422409,132.339798 177.050079,128.221558 
	C176.965225,127.283051 177.037582,126.330330 176.018280,124.915848 
	C174.861343,126.700317 173.842651,128.595978 172.516663,130.244461 
	C170.252060,133.059814 168.129288,136.160355 165.309998,138.303009 
	C163.145859,139.947754 159.343826,141.739365 157.456604,140.875092 
	C154.990326,139.745590 152.177597,136.049683 152.197174,133.478333 
	C152.243851,127.348740 153.865555,121.231133 154.903015,114.786194 
	C153.288528,114.288933 150.430832,114.056206 148.360565,112.657768 
	C139.915176,106.952988 141.421829,92.324486 150.864090,88.259254 
	C152.563766,87.527481 155.732422,87.483276 156.741776,88.538422 
	C158.109695,89.968399 158.903534,92.971901 158.429626,94.934875 
	C157.301407,99.607780 155.284103,104.066032 153.403427,109.220978 
	C154.686447,109.350418 156.182053,109.566292 157.684708,109.641937 
	C165.206100,110.020561 165.924530,111.125206 163.621078,118.109848 
	C162.221222,122.354515 160.973984,126.664154 159.962601,131.015366 
	C159.535400,132.853287 159.891388,134.873260 159.891388,138.629959 
	C163.156906,135.989075 165.791489,134.609695 167.363693,132.455124 
	C173.704254,123.765869 179.406052,114.831718 181.199783,103.751205 
	C182.299454,96.958176 185.052170,90.432747 187.434586,82.557335 
	C180.115799,83.211113 173.417801,83.809433 166.893463,84.392235 
	C167.589798,81.155090 169.184448,80.231895 176.260361,79.934486 
	C180.393295,79.760780 184.539505,79.902847 188.613693,79.902847 
	C190.513748,75.784500 192.262253,71.842041 194.145233,67.964890 
	C195.491867,65.192093 197.324966,63.215755 200.841064,64.744095 
	C204.814560,66.471245 202.667740,69.009529 201.748795,71.353142 
	C200.554993,74.397758 199.282883,77.411682 197.787125,81.067917 
	C206.482239,80.385834 214.754089,83.129341 222.667908,78.819962 
	C223.025497,79.884521 223.021713,80.467407 223.017944,81.050293 
	C216.696777,85.568962 209.405746,84.773193 202.448395,84.108398 
	C197.627640,83.647758 195.634018,85.091583 194.538452,89.534492 
	C191.335678,102.523094 187.604431,115.387741 184.687744,128.436737 
	C183.791138,132.448059 184.850601,136.896606 185.029663,141.676758 
	C185.123627,142.409393 185.215576,142.604858 185.320831,142.794952 
M149.412628,102.917435 
	C149.840988,103.977081 150.269348,105.036728 150.697693,106.096367 
	C151.126175,106.091675 151.554642,106.086983 151.983124,106.082291 
	C153.293655,102.452057 154.755005,98.864845 155.811096,95.162041 
	C156.082932,94.208931 155.079132,92.891998 154.661331,91.742218 
	C153.602127,92.371178 151.937027,92.771423 151.597137,93.671906 
	C150.571152,96.389893 150.060089,99.302238 149.412628,102.917435 
M177.427429,122.485405 
	C177.427429,122.485405 177.521378,122.432777 177.427429,122.485405 
z"/>
<path fill="#121212" opacity="1.000000" stroke="none" 
	d="
M378.525665,141.173569 
	C378.960999,141.405197 379.801361,141.714478 379.773987,141.857407 
	C377.505920,153.688675 375.285797,165.532104 372.726929,177.301758 
	C372.296722,179.280670 370.380890,180.936584 368.402252,182.424438 
	C365.553284,168.183823 371.928009,156.229721 377.596161,143.729095 
	C377.685059,143.231445 377.650635,142.998230 378.052063,142.294891 
	C378.378113,141.640488 378.451904,141.407028 378.525665,141.173569 
z"/>
<path fill="#ECECEC" opacity="1.000000" stroke="none" 
	d="
M81.777634,66.975418 
	C82.727478,65.258156 83.221016,63.565639 83.714554,61.873127 
	C83.999802,61.919258 84.285057,61.965389 84.570305,62.011520 
	C84.570305,66.283272 84.570305,70.555016 84.570305,74.826767 
	C84.233612,74.870956 83.896919,74.915146 83.560219,74.959335 
	C83.270180,73.179665 82.980133,71.399994 82.650505,69.377480 
	C80.621704,69.377480 78.557739,69.377480 76.328148,69.377480 
	C76.083595,71.319611 75.853241,73.149048 75.622879,74.978485 
	C75.269577,74.951035 74.916275,74.923584 74.562973,74.896133 
	C74.562973,70.589897 74.562973,66.283661 74.562973,61.977425 
	C74.905464,61.948765 75.247948,61.920105 75.590439,61.891445 
	C75.830002,63.511127 76.069572,65.130814 76.346069,67.000175 
	C78.081459,67.000175 79.701385,67.000175 81.777634,66.975418 
z"/>
<path fill="#EEEEEE" opacity="1.000000" stroke="none" 
	d="
M91.876572,61.826279 
	C93.760345,61.825684 95.185883,61.825684 96.276497,61.825684 
	C94.515717,63.072433 92.767807,64.310074 91.019890,65.547714 
	C92.346489,66.648636 93.673088,67.749557 94.963562,68.820496 
	C94.131203,68.967865 92.745117,69.213280 91.336708,69.462639 
	C89.990051,74.155212 93.240051,74.175667 96.237534,74.744858 
	C93.989037,74.744858 91.740532,74.744858 88.984398,74.744858 
	C88.984398,71.135033 88.848404,67.520691 89.094826,63.932617 
	C89.146446,63.181057 90.607025,62.526260 91.876572,61.826279 
z"/>
<path fill="#E1E1E1" opacity="1.000000" stroke="none" 
	d="
M63.412384,63.538124 
	C62.828739,62.971355 62.697914,62.457726 62.567085,61.944096 
	C65.250374,61.944096 67.933662,61.944096 70.616951,61.944096 
	C70.653267,62.236679 70.689575,62.529263 70.725891,62.821842 
	C69.608910,63.253185 68.491928,63.684525 66.974899,64.270355 
	C66.974899,67.712059 66.974899,71.297920 66.974899,74.883774 
	C66.520576,74.936249 66.066254,74.988716 65.611938,75.041183 
	C65.430923,73.501366 65.297646,71.954056 65.057686,70.423485 
	C64.699661,68.139885 64.266434,65.868080 63.412384,63.538124 
z"/>
<path fill="#1B1B1B" opacity="1.000000" stroke="none" 
	d="
M401.473663,123.793884 
	C402.206879,124.435532 402.907776,125.113457 404.303131,126.463104 
	C402.944519,128.361023 401.448486,130.836655 399.515320,132.903366 
	C398.974213,133.481842 397.144958,132.855408 396.046387,132.118759 
	C396.623047,130.690552 397.059845,129.925262 397.792023,128.981628 
	C399.202301,127.177834 400.317200,125.552361 401.432098,123.926888 
	C401.432098,123.926888 401.441345,123.830154 401.473663,123.793884 
z"/>
<path fill="#F2F2F2" opacity="1.000000" stroke="none" 
	d="
M417.880249,116.439743 
	C421.106598,114.694618 424.332916,112.949486 428.728699,110.571808 
	C426.702087,116.429161 422.234955,117.139595 418.353638,118.588608 
	C417.950043,117.594109 417.915131,117.016922 417.880249,116.439743 
z"/>
<path fill="#F2F2F2" opacity="1.000000" stroke="none" 
	d="
M401.175537,123.562134 
	C400.317200,125.552361 399.202301,127.177834 397.403931,128.937927 
	C395.942566,129.048660 395.164673,129.024796 394.386780,129.000916 
	C396.564178,127.066399 398.741608,125.131882 401.175537,123.562134 
z"/>
<path fill="#F3F3F3" opacity="1.000000" stroke="none" 
	d="
M206.834900,120.578812 
	C205.539047,123.106270 204.243210,125.633720 202.536682,127.951576 
	C201.770584,127.163445 201.415207,126.584900 201.059830,126.006348 
	C201.945190,124.251297 202.830551,122.496246 204.593292,120.630585 
	C205.925400,120.539589 206.380142,120.559196 206.834900,120.578812 
z"/>
<path fill="#F3F3F3" opacity="1.000000" stroke="none" 
	d="
M206.896667,114.778679 
	C207.644913,113.667419 208.393158,112.556152 209.141403,111.444893 
	C209.634583,111.711403 210.127762,111.977913 210.620956,112.244423 
	C209.629074,114.663063 208.637207,117.081703 207.347031,119.161491 
	C206.998032,117.474655 206.947357,116.126663 206.896667,114.778679 
z"/>
<path fill="#DBDBDB" opacity="1.000000" stroke="none" 
	d="
M206.627777,115.002426 
	C206.947357,116.126663 206.998032,117.474655 207.011749,119.508270 
	C206.974762,120.193893 206.802582,120.490181 206.818726,120.534500 
	C206.380142,120.559196 205.925400,120.539589 204.802673,120.378662 
	C204.876068,118.566963 205.617477,116.896568 206.627777,115.002426 
z"/>
<path fill="#F1F1F1" opacity="1.000000" stroke="none" 
	d="
M394.151062,129.248627 
	C395.164673,129.024796 395.942566,129.048660 397.108551,129.116257 
	C397.059845,129.925262 396.623047,130.690552 395.999329,131.728012 
	C395.148834,132.000336 394.485229,132.000473 393.489838,132.000870 
	C393.410461,131.166183 393.662903,130.331268 394.151062,129.248627 
z"/>
<path fill="#F4F4F4" opacity="1.000000" stroke="none" 
	d="
M200.852188,126.150627 
	C201.415207,126.584900 201.770584,127.163445 202.222916,128.248505 
	C201.929077,129.565308 201.538300,130.375626 200.977081,131.351730 
	C200.526245,131.063766 200.245865,130.609985 199.692566,129.403778 
	C199.827942,127.865852 200.236237,127.080376 200.852188,126.150627 
z"/>
<path fill="#EEEEEE" opacity="1.000000" stroke="none" 
	d="
M417.555542,116.511086 
	C417.915131,117.016922 417.950043,117.594109 417.992004,118.604950 
	C417.882965,119.166908 417.766876,119.295204 417.394196,119.461807 
	C416.858521,118.903679 416.579437,118.307243 416.156769,117.413078 
	C416.419098,116.937706 416.824951,116.760063 417.555542,116.511086 
z"/>
<path fill="#F3F3F3" opacity="1.000000" stroke="none" 
	d="
M223.368683,80.907547 
	C223.021713,80.467407 223.025497,79.884521 223.059677,78.864441 
	C223.299866,79.206436 223.509644,79.985611 223.368683,80.907547 
z"/>
<path fill="#0E0E0E" opacity="1.000000" stroke="none" 
	d="
M360.044983,106.145988 
	C360.007721,106.388123 359.534302,106.592690 358.897095,106.456436 
	C359.025177,106.113213 359.316986,106.110817 360.044983,106.145988 
z"/>
<path fill="#F1F1F1" opacity="1.000000" stroke="none" 
	d="
M377.938416,141.341705 
	C378.451904,141.407028 378.378113,141.640488 378.165527,142.213470 
	C377.723297,142.644165 377.419891,142.735321 376.964722,142.716583 
	C376.992371,142.241058 377.171753,141.875443 377.938416,141.341705 
z"/>
<path fill="#F3F3F3" opacity="1.000000" stroke="none" 
	d="
M185.282593,142.574127 
	C185.215576,142.604858 185.123627,142.409393 185.025848,142.090912 
	C185.006729,141.973267 185.244370,142.353302 185.282593,142.574127 
z"/>
<path fill="#080808" opacity="1.000000" stroke="none" 
	d="
M309.624268,107.485214 
	C311.893066,90.033028 315.290466,73.334557 323.710541,58.098133 
	C325.063232,55.650459 326.653595,53.217300 328.620697,51.268631 
	C329.856140,50.044746 332.122009,49.016296 333.690460,49.282970 
	C334.666351,49.448887 335.810608,52.194633 335.815887,53.786057 
	C335.828461,57.574387 335.631378,61.463467 334.772339,65.137268 
	C331.110504,80.797707 323.606628,94.510101 312.877716,106.447372 
	C312.140076,107.268097 310.674072,107.434212 309.624268,107.485214 
z"/>
<path fill="#070707" opacity="1.000000" stroke="none" 
	d="
M252.748840,157.034119 
	C244.913681,156.820251 241.939926,152.061111 246.142044,145.990143 
	C248.991074,141.874008 252.919571,138.177277 257.095093,135.383911 
	C263.361664,131.191666 270.268188,127.955994 277.115631,124.196556 
	C279.987152,136.967896 267.741974,153.125671 252.748840,157.034119 
z"/>
<path fill="#0E0E0E" opacity="1.000000" stroke="none" 
	d="
M353.028320,124.128220 
	C355.316284,118.634796 357.548981,113.537987 359.960907,108.031952 
	C361.132324,110.265785 361.725555,111.798454 362.658234,113.085045 
	C364.199677,115.211311 367.527222,116.574471 365.407501,120.094376 
	C362.576416,124.795448 359.726837,129.486450 356.698730,134.058273 
	C356.648865,134.133545 353.341919,132.853241 353.099304,131.836868 
	C352.546631,129.521408 352.955139,126.976494 353.028320,124.128220 
z"/>
<path fill="#F1F1F1" opacity="1.000000" stroke="none" 
	d="
M363.745789,109.371666 
	C364.134827,108.493927 364.680939,107.916039 365.227051,107.338150 
	C365.670227,108.300247 366.113434,109.262344 366.556610,110.224434 
	C365.672028,110.040131 364.787415,109.855827 363.745789,109.371666 
z"/>
<path fill="#F1F1F1" opacity="1.000000" stroke="none" 
	d="
M389.422852,121.955658 
	C389.800903,121.725815 390.176544,121.727997 390.550018,121.757294 
	C390.560425,121.758118 390.548065,122.049202 390.546356,122.204941 
	C390.170959,122.200447 389.795532,122.195953 389.422852,121.955658 
z"/>
<path fill="#040404" opacity="1.000000" stroke="none" 
	d="
M58.027077,143.304810 
	C52.535042,145.185181 47.388802,145.800888 43.164680,141.674545 
	C38.677147,137.290878 38.271015,131.816269 40.005905,125.983315 
	C42.338665,118.140236 47.697926,112.887985 54.551758,109.023033 
	C67.973183,101.454521 82.736862,100.281334 98.879379,99.766930 
	C86.958862,116.745636 77.512619,134.392197 58.027077,143.304810 
z"/>
<path fill="#080808" opacity="1.000000" stroke="none" 
	d="
M121.946869,67.993034 
	C128.931244,57.108574 134.850067,45.825928 146.466385,38.755234 
	C143.884567,45.474628 141.300186,52.193035 138.721497,58.913631 
	C134.263306,70.532639 129.668228,82.102562 125.461990,93.812111 
	C124.536377,96.388878 123.510529,97.235939 120.939362,97.017418 
	C116.137268,96.609283 111.317032,96.414574 105.699600,96.083656 
	C111.225410,86.539322 116.500992,77.427185 121.946869,67.993034 
z"/>
<path fill="#1B1B1B" opacity="1.000000" stroke="none" 
	d="
M149.380463,102.528122 
	C150.060089,99.302238 150.571152,96.389893 151.597137,93.671906 
	C151.937027,92.771423 153.602127,92.371178 154.661331,91.742218 
	C155.079132,92.891998 156.082932,94.208931 155.811096,95.162041 
	C154.755005,98.864845 153.293655,102.452057 151.983124,106.082291 
	C151.554642,106.086983 151.126175,106.091675 150.697693,106.096367 
	C150.269348,105.036728 149.840988,103.977081 149.380463,102.528122 
z"/>
<path fill="#F3F3F3" opacity="1.000000" stroke="none" 
	d="
M177.474396,122.459091 
	C177.521378,122.432777 177.427429,122.485405 177.474396,122.459091 
z"/>
</svg>